<svg width="126" height="102" viewBox="0 0 126 102" fill="none" xmlns="http://www.w3.org/2000/svg">
<g filter="url(#filter0_d_84_451)">
<circle cx="63.6703" cy="47" r="46.5" fill="#CBD6FF"/>
<circle cx="63.6703" cy="47" r="46.5" stroke="#052ABD"/>
<circle cx="63.6703" cy="47" r="46.5" stroke="#052ABD"/>
<circle cx="63.6703" cy="47" r="40.3465" fill="#AEBEFF"/>
<circle cx="63.6703" cy="47" r="40.3465" stroke="#052ABD" stroke-width="4"/>
<circle cx="63.6703" cy="47" r="40.3465" stroke="#052ABD" stroke-width="4"/>
<path d="M64 32V20" stroke="#052ABD" stroke-width="2.5" stroke-linecap="round" stroke-linejoin="round"/>
<path d="M73 32V36C73 36.5304 72.7893 37.0391 72.4142 37.4142C72.0391 37.7893 71.5304 38 71 38H57C56.4696 38 55.9609 37.7893 55.5858 37.4142C55.2107 37.0391 55 36.5304 55 36V32" stroke="#052ABD" stroke-width="2.5" stroke-linecap="round" stroke-linejoin="round"/>
<path d="M59 27L64 32L69 27" stroke="#052ABD" stroke-width="2.5" stroke-linecap="round" stroke-linejoin="round"/>
</g>
<rect x="0.5" y="52" width="125" height="21" rx="2" fill="#052ABD"/>
<path d="M21.222 67V57.9H25.2C26.188 57.9 27.0547 58.0907 27.8 58.472C28.5453 58.8533 29.126 59.382 29.542 60.058C29.958 60.734 30.166 61.5313 30.166 62.45C30.166 63.36 29.958 64.1573 29.542 64.842C29.126 65.518 28.5453 66.0467 27.8 66.428C27.0547 66.8093 26.188 67 25.2 67H21.222ZM22.912 65.57H25.122C25.8067 65.57 26.396 65.44 26.89 65.18C27.3927 64.92 27.7783 64.556 28.047 64.088C28.3243 63.62 28.463 63.074 28.463 62.45C28.463 61.8173 28.3243 61.2713 28.047 60.812C27.7783 60.344 27.3927 59.98 26.89 59.72C26.396 59.46 25.8067 59.33 25.122 59.33H22.912V65.57ZM36.2262 67.13C35.5156 67.13 34.8612 67.013 34.2632 66.779C33.6652 66.545 33.1452 66.22 32.7032 65.804C32.2612 65.3793 31.9189 64.8853 31.6762 64.322C31.4336 63.75 31.3122 63.126 31.3122 62.45C31.3122 61.774 31.4336 61.1543 31.6762 60.591C31.9189 60.019 32.2612 59.525 32.7032 59.109C33.1452 58.6843 33.6652 58.355 34.2632 58.121C34.8612 57.887 35.5112 57.77 36.2132 57.77C36.9239 57.77 37.5739 57.887 38.1632 58.121C38.7612 58.355 39.2812 58.6843 39.7232 59.109C40.1652 59.525 40.5076 60.019 40.7502 60.591C40.9929 61.1543 41.1142 61.774 41.1142 62.45C41.1142 63.126 40.9929 63.75 40.7502 64.322C40.5076 64.894 40.1652 65.388 39.7232 65.804C39.2812 66.22 38.7612 66.545 38.1632 66.779C37.5739 67.013 36.9282 67.13 36.2262 67.13ZM36.2132 65.648C36.6726 65.648 37.0972 65.57 37.4872 65.414C37.8772 65.258 38.2152 65.037 38.5012 64.751C38.7872 64.4563 39.0082 64.1183 39.1642 63.737C39.3289 63.347 39.4112 62.918 39.4112 62.45C39.4112 61.982 39.3289 61.5573 39.1642 61.176C39.0082 60.786 38.7872 60.448 38.5012 60.162C38.2152 59.8673 37.8772 59.642 37.4872 59.486C37.0972 59.33 36.6726 59.252 36.2132 59.252C35.7539 59.252 35.3292 59.33 34.9392 59.486C34.5579 59.642 34.2199 59.8673 33.9252 60.162C33.6392 60.448 33.4139 60.786 33.2492 61.176C33.0932 61.5573 33.0152 61.982 33.0152 62.45C33.0152 62.9093 33.0932 63.334 33.2492 63.724C33.4139 64.114 33.6392 64.4563 33.9252 64.751C34.2112 65.037 34.5492 65.258 34.9392 65.414C35.3292 65.57 35.7539 65.648 36.2132 65.648ZM44.7713 67L41.7553 57.9H43.5103L46.2013 66.129H45.3303L48.1253 57.9H49.6853L52.4023 66.129H51.5573L54.3133 57.9H55.9253L52.9093 67H51.1153L48.6323 59.577H49.1003L46.5783 67H44.7713ZM57.3021 67V57.9H58.6931L64.4001 64.907H63.7111V57.9H65.3881V67H63.9971L58.2901 59.993H58.9791V67H57.3021ZM67.8265 67V57.9H69.5165V65.57H74.2745V67H67.8265ZM79.7077 67.13C78.997 67.13 78.3427 67.013 77.7447 66.779C77.1467 66.545 76.6267 66.22 76.1847 65.804C75.7427 65.3793 75.4003 64.8853 75.1577 64.322C74.915 63.75 74.7937 63.126 74.7937 62.45C74.7937 61.774 74.915 61.1543 75.1577 60.591C75.4003 60.019 75.7427 59.525 76.1847 59.109C76.6267 58.6843 77.1467 58.355 77.7447 58.121C78.3427 57.887 78.9927 57.77 79.6947 57.77C80.4053 57.77 81.0553 57.887 81.6447 58.121C82.2427 58.355 82.7627 58.6843 83.2047 59.109C83.6467 59.525 83.989 60.019 84.2317 60.591C84.4743 61.1543 84.5957 61.774 84.5957 62.45C84.5957 63.126 84.4743 63.75 84.2317 64.322C83.989 64.894 83.6467 65.388 83.2047 65.804C82.7627 66.22 82.2427 66.545 81.6447 66.779C81.0553 67.013 80.4097 67.13 79.7077 67.13ZM79.6947 65.648C80.154 65.648 80.5787 65.57 80.9687 65.414C81.3587 65.258 81.6967 65.037 81.9827 64.751C82.2687 64.4563 82.4897 64.1183 82.6457 63.737C82.8103 63.347 82.8927 62.918 82.8927 62.45C82.8927 61.982 82.8103 61.5573 82.6457 61.176C82.4897 60.786 82.2687 60.448 81.9827 60.162C81.6967 59.8673 81.3587 59.642 80.9687 59.486C80.5787 59.33 80.154 59.252 79.6947 59.252C79.2353 59.252 78.8107 59.33 78.4207 59.486C78.0393 59.642 77.7013 59.8673 77.4067 60.162C77.1207 60.448 76.8953 60.786 76.7307 61.176C76.5747 61.5573 76.4967 61.982 76.4967 62.45C76.4967 62.9093 76.5747 63.334 76.7307 63.724C76.8953 64.114 77.1207 64.4563 77.4067 64.751C77.6927 65.037 78.0307 65.258 78.4207 65.414C78.8107 65.57 79.2353 65.648 79.6947 65.648ZM84.9731 67L89.0681 57.9H90.7321L94.8401 67H93.0721L89.5491 58.797H90.2251L86.7151 67H84.9731ZM86.8581 64.894L87.3131 63.568H92.2271L92.6821 64.894H86.8581ZM95.9974 67V57.9H99.9754C100.963 57.9 101.83 58.0907 102.575 58.472C103.321 58.8533 103.901 59.382 104.317 60.058C104.733 60.734 104.941 61.5313 104.941 62.45C104.941 63.36 104.733 64.1573 104.317 64.842C103.901 65.518 103.321 66.0467 102.575 66.428C101.83 66.8093 100.963 67 99.9754 67H95.9974ZM97.6874 65.57H99.8974C100.582 65.57 101.171 65.44 101.665 65.18C102.168 64.92 102.554 64.556 102.822 64.088C103.1 63.62 103.238 63.074 103.238 62.45C103.238 61.8173 103.1 61.2713 102.822 60.812C102.554 60.344 102.168 59.98 101.665 59.72C101.171 59.46 100.582 59.33 99.8974 59.33H97.6874V65.57Z" fill="white"/>
<defs>
<filter id="filter0_d_84_451" x="12.6703" y="0" width="102" height="102" filterUnits="userSpaceOnUse" color-interpolation-filters="sRGB">
<feFlood flood-opacity="0" result="BackgroundImageFix"/>
<feColorMatrix in="SourceAlpha" type="matrix" values="0 0 0 0 0 0 0 0 0 0 0 0 0 0 0 0 0 0 127 0" result="hardAlpha"/>
<feOffset dy="4"/>
<feGaussianBlur stdDeviation="2"/>
<feComposite in2="hardAlpha" operator="out"/>
<feColorMatrix type="matrix" values="0 0 0 0 0 0 0 0 0 0 0 0 0 0 0 0 0 0 0.15 0"/>
<feBlend mode="normal" in2="BackgroundImageFix" result="effect1_dropShadow_84_451"/>
<feBlend mode="normal" in="SourceGraphic" in2="effect1_dropShadow_84_451" result="shape"/>
</filter>
</defs>
</svg>
