<svg width="28" height="23" viewBox="0 0 28 23" fill="none" xmlns="http://www.w3.org/2000/svg">
<path d="M13.5848 21.2381L16.7719 12.2442L22.3134 10.6636C24.6884 9.98624 26.3856 8.28944 26.4995 7.04422C25.8217 6.02479 23.5606 5.45696 21.1857 6.13434L15.6441 7.7149L8.69801 1.61118C8.26857 1.24857 7.75599 1.23307 7.31859 1.51953L6.72286 1.85114C6.22509 2.23566 6.0212 2.7789 6.23194 3.28474L9.31092 9.52126L5.54061 11.4051L2.60179 9.81785L1.01849 10.2694L2.74992 13.818L2.89804 17.8182L4.48135 17.3667L6.29243 14.4246L10.4386 14.0505L10.6677 21.0999C10.7201 21.6509 11.1495 22.0135 11.7601 22.0819L12.3706 22.1503C12.9436 22.0678 13.3809 21.7813 13.5848 21.2381Z" fill="#052ABD" stroke="#052ABD" stroke-linecap="round" stroke-linejoin="round"/>
</svg>
