<svg width="106" height="105" viewBox="0 0 106 105" fill="none" xmlns="http://www.w3.org/2000/svg">
<g filter="url(#filter0_d_83_131)">
<circle cx="53" cy="48.5" r="48.5" fill="#CCD6FF"/>
<circle cx="53" cy="48.5" r="48" stroke="#052ABD"/>
<circle cx="53" cy="48.5" r="48" stroke="#052ABD"/>
</g>
<circle cx="53" cy="48.5" r="42.198" fill="#AEBEFF" stroke="#052ABD" stroke-width="3"/>
<path d="M61.1634 32.6535C61.1634 37.4555 57.802 39.8565 53.8067 41.2491C53.5975 41.32 53.3703 41.3166 53.1633 41.2395C49.1584 39.8565 45.797 37.4555 45.797 32.6535V25.9308C45.797 25.676 45.8982 25.4318 46.0783 25.2517C46.2584 25.0715 46.5027 24.9704 46.7574 24.9704C48.6782 24.9704 51.0792 23.8179 52.7503 22.3581C52.9538 22.1843 53.2126 22.0887 53.4802 22.0887C53.7478 22.0887 54.0066 22.1843 54.2101 22.3581C55.8908 23.8275 58.2822 24.9704 60.203 24.9704C60.4577 24.9704 60.702 25.0715 60.8821 25.2517C61.0622 25.4318 61.1634 25.676 61.1634 25.9308V32.6535Z" fill="#052ABD" stroke="#052ABD" stroke-width="1.5" stroke-linecap="round" stroke-linejoin="round"/>
<path d="M50.599 31.6931L52.5198 33.6139L56.3614 29.7723" stroke="white" stroke-width="1.5" stroke-linecap="round" stroke-linejoin="round"/>
<path d="M36.328 65V53.8H41.176C42.1787 53.8 43.0427 53.9653 43.768 54.296C44.4933 54.616 45.0533 55.08 45.448 55.688C45.8427 56.296 46.04 57.0213 46.04 57.864C46.04 58.696 45.8427 59.416 45.448 60.024C45.0533 60.632 44.4933 61.1013 43.768 61.432C43.0427 61.752 42.1787 61.912 41.176 61.912H37.768L38.92 60.744V65H36.328ZM38.92 61.032L37.768 59.8H41.032C41.832 59.8 42.4293 59.6293 42.824 59.288C43.2187 58.9467 43.416 58.472 43.416 57.864C43.416 57.2453 43.2187 56.7653 42.824 56.424C42.4293 56.0827 41.832 55.912 41.032 55.912H37.768L38.92 54.68V61.032ZM47.8905 65V53.8H50.0345L56.6425 61.864H55.6025V53.8H58.1625V65H56.0345L49.4105 56.936H50.4505V65H47.8905ZM60.8124 65V53.8H65.6604C66.663 53.8 67.527 53.9653 68.2524 54.296C68.9777 54.616 69.5377 55.08 69.9324 55.688C70.327 56.296 70.5244 57.0213 70.5244 57.864C70.5244 58.696 70.327 59.416 69.9324 60.024C69.5377 60.6213 68.9777 61.08 68.2524 61.4C67.527 61.72 66.663 61.88 65.6604 61.88H62.2524L63.4044 60.744V65H60.8124ZM67.9324 65L65.1324 60.936H67.9004L70.7324 65H67.9324ZM63.4044 61.032L62.2524 59.816H65.5164C66.3164 59.816 66.9137 59.6453 67.3084 59.304C67.703 58.952 67.9004 58.472 67.9004 57.864C67.9004 57.2453 67.703 56.7653 67.3084 56.424C66.9137 56.0827 66.3164 55.912 65.5164 55.912H62.2524L63.4044 54.68V61.032Z" fill="#052ABD"/>
<defs>
<filter id="filter0_d_83_131" x="0.5" y="0" width="105" height="105" filterUnits="userSpaceOnUse" color-interpolation-filters="sRGB">
<feFlood flood-opacity="0" result="BackgroundImageFix"/>
<feColorMatrix in="SourceAlpha" type="matrix" values="0 0 0 0 0 0 0 0 0 0 0 0 0 0 0 0 0 0 127 0" result="hardAlpha"/>
<feOffset dy="4"/>
<feGaussianBlur stdDeviation="2"/>
<feComposite in2="hardAlpha" operator="out"/>
<feColorMatrix type="matrix" values="0 0 0 0 0 0 0 0 0 0 0 0 0 0 0 0 0 0 0.15 0"/>
<feBlend mode="normal" in2="BackgroundImageFix" result="effect1_dropShadow_83_131"/>
<feBlend mode="normal" in="SourceGraphic" in2="effect1_dropShadow_83_131" result="shape"/>
</filter>
</defs>
</svg>
