<svg width="261" height="152" viewBox="0 0 261 152" fill="none" xmlns="http://www.w3.org/2000/svg">
<rect x="34.7458" y="3.99976" width="237" height="187" rx="5" transform="rotate(21.5464 34.7458 3.99976)" fill="#052ABD"/>
<path d="M45.9356 28.717L45.5154 29.7811L43.0125 28.7928L40.0906 36.1929L38.9782 35.7536L41.9001 28.3536L39.4092 27.3701L39.8293 26.306L45.9356 28.717ZM46.9513 30.6415C46.7498 30.562 46.6075 30.4266 46.5246 30.2355C46.4417 30.0443 46.4384 29.852 46.5148 29.6585C46.5912 29.4651 46.725 29.3269 46.9161 29.244C47.1104 29.153 47.3084 29.1473 47.5099 29.2268C47.7033 29.3032 47.84 29.441 47.9197 29.6402C48.0026 29.8314 48.0059 30.0237 47.9295 30.2171C47.8531 30.4106 47.7194 30.5488 47.5282 30.6317C47.3371 30.7147 47.1448 30.7179 46.9513 30.6415ZM43.5976 37.5776L45.9848 31.5318L47.0368 31.9472L44.6496 37.993L43.5976 37.5776ZM49.0339 39.9058C48.123 39.5461 47.4847 38.9446 47.1188 38.1013C46.7561 37.25 46.753 36.3729 47.1095 35.4701C47.466 34.5672 48.0659 33.9329 48.9092 33.567C49.7556 33.1931 50.6343 33.186 51.5452 33.5456C52.1417 33.7812 52.6205 34.1379 52.9815 34.6159C53.3457 35.0858 53.5492 35.6088 53.592 36.1847L52.5088 36.3441C52.483 35.9611 52.347 35.6093 52.101 35.2885C51.863 34.9709 51.5425 34.7325 51.1394 34.5734C50.5348 34.3347 49.9458 34.3397 49.3724 34.5885C48.807 34.8405 48.4034 35.2728 48.1615 35.8854C47.9227 36.49 47.9237 37.0774 48.1645 37.6477C48.4133 38.2211 48.8399 38.6272 49.4445 38.8659C49.8476 39.0251 50.2469 39.0756 50.6426 39.0175C51.0414 38.9513 51.3891 38.7905 51.6857 38.5349L52.3752 39.4081C51.9294 39.7819 51.4075 40.0183 50.8092 40.1176C50.2141 40.2087 49.6224 40.1381 49.0339 39.9058ZM57.97 43.2525L56.6641 42.7368L55.0387 38.7826L53.9072 41.6483L52.8552 41.2329L56.1973 32.7688L57.2492 33.1842L55.2392 38.2747L58.9061 36.6338L60.2604 37.1685L56.2151 38.9536L57.97 43.2525ZM60.1335 41.1716C60.025 41.7531 60.1054 42.2693 60.3745 42.7204C60.6517 43.1746 61.0765 43.5147 61.6489 43.7407C62.4469 44.0558 63.1435 43.9907 63.7386 43.5455L64.4328 44.4066C63.4847 45.0852 62.4182 45.1905 61.2332 44.7226C60.2739 44.3439 59.6098 43.7369 59.2407 42.9016C58.8829 42.0615 58.8854 41.182 59.2483 40.263C59.608 39.3521 60.2014 38.7106 61.0285 38.3383C61.8557 37.9661 62.7368 37.9646 63.6719 38.3338C64.5586 38.6839 65.156 39.2832 65.4639 40.1316C65.7831 40.9751 65.7692 41.8361 65.4223 42.7148C65.3618 42.868 65.2877 43.0204 65.1998 43.172L60.1335 41.1716ZM63.2804 39.3253C62.7162 39.1025 62.185 39.0791 61.6868 39.2552C61.1919 39.4231 60.7951 39.7556 60.4963 40.2526L64.5349 41.8473C64.6722 41.2399 64.6184 40.7155 64.3734 40.274C64.1284 39.8325 63.7641 39.5163 63.2804 39.3253ZM70.5406 42.4016L68.9325 41.7667L67.6386 45.0435C67.5209 45.3417 67.4929 45.5776 67.5549 45.7512C67.628 45.9198 67.784 46.0559 68.0226 46.1595C68.2644 46.255 68.5659 46.3647 68.9269 46.4886L68.5545 47.4317C67.5878 47.1898 66.9434 46.8515 66.6212 46.4168C66.3022 45.974 66.2907 45.3778 66.5867 44.6281L67.8805 41.3513L66.6834 40.8786L67.0845 39.8629L68.2815 40.3356L68.8258 38.9572L70.0019 39.0582L69.3335 40.751L70.9417 41.386L70.5406 42.4016Z" fill="white"/>
<rect x="22.3987" y="44.259" width="234" height="1" transform="rotate(21.5464 22.3987 44.259)" fill="#D9D9D9"/>
<path d="M31.3055 71.7834L27.7384 70.375L26.8027 72.745L30.2488 74.1056L29.7236 75.4357L26.2775 74.075L24.9216 77.509L23.5311 76.96L26.8731 68.4959L31.8306 70.4534L31.3055 71.7834ZM32.9968 74.8832C33.6233 74.264 34.392 74.1342 35.3029 74.4939L34.7443 75.9086C34.2572 75.679 33.7742 75.6281 33.2952 75.7557C32.8193 75.8753 32.4589 76.2455 32.2138 76.8662L31.0107 79.9133L29.7048 79.3976L32.0919 73.3519L33.3978 73.8675L32.9968 74.8832ZM36.3458 82.2015C35.4591 81.8514 34.8263 81.2475 34.4475 80.3898C34.0687 79.532 34.0559 78.6558 34.4092 77.761C34.7625 76.8662 35.3705 76.2351 36.2331 75.8675C37.0957 75.5 37.9703 75.4912 38.8571 75.8414C39.7518 76.1947 40.3846 76.7986 40.7553 77.6531C41.1341 78.5108 41.1469 79.3871 40.7936 80.2819C40.4403 81.1766 39.8323 81.8078 38.9697 82.1754C38.1152 82.5461 37.2405 82.5548 36.3458 82.2015ZM35.7198 79.8578C35.9393 80.3638 36.315 80.7218 36.8471 80.9319C37.3791 81.142 37.8981 81.1373 38.4041 80.9177C38.9101 80.6982 39.2713 80.3144 39.4877 79.7662C39.7041 79.2181 39.7026 78.691 39.4831 78.185C39.2636 77.6791 38.8878 77.321 38.3558 77.111C37.8237 76.9009 37.3047 76.9056 36.7987 77.1251C36.2928 77.3447 35.9316 77.7285 35.7151 78.2767C35.4987 78.8248 35.5002 79.3519 35.7198 79.8578ZM49.832 80.1748C50.5172 80.4453 50.9819 80.885 51.226 81.4939C51.4701 82.1028 51.4442 82.7821 51.1482 83.5317L49.6681 87.2801L48.3622 86.7645L49.8089 83.1007C49.9744 82.6816 49.9969 82.3178 49.8764 82.0093C49.7591 81.6928 49.5191 81.4629 49.1564 81.3197C48.7533 81.1605 48.3784 81.1662 48.0315 81.3367C47.6927 81.5104 47.4183 81.8633 47.2082 82.3953L45.8714 85.781L44.5655 85.2654L46.0121 81.6016C46.1776 81.1824 46.2042 80.8202 46.0918 80.5149C45.9906 80.2048 45.7586 79.9781 45.3959 79.8348C45.0009 79.6789 44.6244 79.6886 44.2662 79.864C43.9113 80.0314 43.6304 80.377 43.4235 80.901L42.0867 84.2866L40.7808 83.771L43.168 77.7252L44.4739 78.2408L44.1874 78.9663C44.8067 78.5307 45.4992 78.464 46.265 78.7664C47.0389 79.0719 47.4855 79.6163 47.6049 80.3996C48.2594 79.9219 49.0018 79.847 49.832 80.1748Z" fill="white"/>
<path d="M164.485 122.832L163.96 124.162L161.578 123.221L158.761 130.355L157.371 129.806L160.188 122.672L157.794 121.727L158.319 120.397L164.485 122.832ZM163.792 132.523C162.905 132.173 162.273 131.569 161.894 130.712C161.515 129.854 161.502 128.978 161.856 128.083C162.209 127.188 162.817 126.557 163.679 126.189C164.542 125.822 165.417 125.813 166.303 126.163C167.198 126.517 167.831 127.12 168.202 127.975C168.581 128.833 168.593 129.709 168.24 130.604C167.887 131.499 167.279 132.13 166.416 132.497C165.562 132.868 164.687 132.877 163.792 132.523ZM163.166 130.18C163.386 130.686 163.761 131.044 164.293 131.254C164.826 131.464 165.345 131.459 165.85 131.24C166.356 131.02 166.718 130.636 166.934 130.088C167.151 129.54 167.149 129.013 166.929 128.507C166.71 128.001 166.334 127.643 165.802 127.433C165.27 127.223 164.751 127.228 164.245 127.447C163.739 127.667 163.378 128.05 163.162 128.599C162.945 129.147 162.947 129.674 163.166 130.18Z" fill="white"/>
<path d="M16.5973 94.5421L17.7218 94.9861L14.3798 103.45L13.2553 103.006L16.5973 94.5421ZM21.5467 99.11C22.2561 99.3901 22.7352 99.8402 22.9842 100.46C23.2364 101.072 23.2113 101.761 22.9089 102.527L21.4432 106.239L20.3913 105.824L21.8331 102.172C22.0273 101.68 22.0438 101.249 21.8829 100.878C21.7251 100.499 21.4124 100.217 20.9449 100.032C20.4209 99.8256 19.9324 99.8237 19.4795 100.027C19.0297 100.222 18.6712 100.658 18.4038 101.335L17.1386 104.54L16.0867 104.124L18.4738 98.0784L19.5258 98.4938L19.182 99.3644C19.8798 98.8479 20.668 98.7631 21.5467 99.11ZM31.2597 100.332L32.3117 100.747L28.9697 109.211L27.9177 108.796L28.3283 107.756C27.4892 108.347 26.5699 108.445 25.5703 108.05C24.7239 107.716 24.1234 107.125 23.7688 106.277C23.4173 105.421 23.4167 104.549 23.7668 103.662C24.1169 102.776 24.7112 102.144 25.5496 101.767C26.3912 101.382 27.2352 101.356 28.0816 101.69C29.0812 102.085 29.6854 102.785 29.8943 103.79L31.2597 100.332ZM26.1044 107.087C26.717 107.329 27.31 107.326 27.8835 107.077C28.4601 106.82 28.8694 106.385 29.1113 105.773C29.3532 105.16 29.3497 104.567 29.1009 103.994C28.8553 103.412 28.4262 103 27.8136 102.759C27.209 102.52 26.6184 102.529 26.0418 102.786C25.4683 103.035 25.0607 103.465 24.8188 104.078C24.5769 104.69 24.5787 105.288 24.8243 105.869C25.0731 106.443 25.4998 106.849 26.1044 107.087ZM33.9171 102.904C33.7156 102.825 33.5734 102.689 33.4904 102.498C33.4075 102.307 33.4042 102.115 33.4806 101.921C33.557 101.728 33.6908 101.59 33.8819 101.507C34.0763 101.416 34.2742 101.41 34.4757 101.49C34.6692 101.566 34.8058 101.704 34.8855 101.903C34.9685 102.094 34.9717 102.286 34.8953 102.48C34.819 102.673 34.6852 102.812 34.494 102.894C34.3029 102.977 34.1106 102.981 33.9171 102.904ZM30.5635 109.84L32.9506 103.795L34.0026 104.21L31.6154 110.256L30.5635 109.84ZM40.6134 106.82L41.6653 107.236L39.2782 113.281L38.2262 112.866L38.6368 111.826C37.7977 112.417 36.8784 112.515 35.8788 112.121C35.0324 111.787 34.4319 111.195 34.0773 110.347C33.7259 109.491 33.7252 108.619 34.0753 107.733C34.4254 106.846 35.0197 106.214 35.8581 105.837C36.6997 105.452 37.5437 105.426 38.3901 105.761C39.3897 106.155 39.9939 106.855 40.2028 107.86L40.6134 106.82ZM36.4129 111.158C37.0255 111.399 37.6186 111.396 38.192 111.147C38.7686 110.89 39.1779 110.456 39.4198 109.843C39.6617 109.23 39.6583 108.637 39.4095 108.064C39.1639 107.482 38.7347 107.071 38.1221 106.829C37.5175 106.59 36.9269 106.599 36.3503 106.856C35.7769 107.105 35.3692 107.536 35.1273 108.148C34.8854 108.761 34.8872 109.358 35.1329 109.939C35.3816 110.513 35.8083 110.919 36.4129 111.158Z" fill="#D9D9D9"/>
<path d="M157.652 160.021L157.712 157.85L153.903 156.346L152.464 157.973L151.267 157.5L157.765 150.282L159.035 150.783L158.849 160.493L157.652 160.021ZM154.706 155.447L157.741 156.646L157.864 151.872L154.706 155.447ZM166.238 156.423L167.29 156.838L164.903 162.884L163.851 162.469L164.195 161.598C163.497 162.114 162.709 162.199 161.83 161.852C161.121 161.572 160.64 161.126 160.388 160.514C160.139 159.894 160.166 159.201 160.468 158.435L161.934 154.723L162.986 155.138L161.544 158.79C161.35 159.282 161.331 159.717 161.489 160.096C161.65 160.467 161.964 160.745 162.432 160.93C162.956 161.137 163.443 161.143 163.893 160.947C164.346 160.744 164.706 160.304 164.973 159.627L166.238 156.423ZM169.142 159.456C169.05 159.69 169.092 159.926 169.269 160.163C169.448 160.392 169.686 160.617 169.981 160.836C170.28 161.047 170.572 161.274 170.858 161.517C171.147 161.753 171.356 162.05 171.485 162.408C171.617 162.758 171.602 163.139 171.439 163.55C171.223 164.098 170.836 164.453 170.278 164.615C169.728 164.78 169.123 164.732 168.462 164.471C167.874 164.239 167.421 163.911 167.103 163.487C166.786 163.064 166.623 162.603 166.614 162.106L167.727 161.944C167.709 162.273 167.799 162.574 167.999 162.848C168.198 163.123 168.483 163.333 168.854 163.479C169.2 163.616 169.512 163.665 169.788 163.625C170.068 163.577 170.264 163.412 170.375 163.13C170.468 162.896 170.424 162.664 170.244 162.435C170.068 162.198 169.83 161.973 169.532 161.762C169.236 161.543 168.945 161.312 168.659 161.069C168.373 160.825 168.165 160.528 168.033 160.178C167.901 159.828 167.914 159.451 168.073 159.048C168.28 158.524 168.652 158.173 169.189 157.993C169.734 157.817 170.312 157.85 170.925 158.092C171.417 158.286 171.807 158.571 172.097 158.946C172.398 159.316 172.567 159.737 172.605 160.209L171.527 160.356C171.513 159.754 171.183 159.326 170.538 159.071C170.24 158.953 169.957 158.926 169.691 158.988C169.427 159.042 169.244 159.198 169.142 159.456ZM177.07 161.874L175.461 161.239L174.168 164.515C174.05 164.814 174.022 165.05 174.084 165.223C174.157 165.392 174.313 165.528 174.552 165.631C174.793 165.727 175.095 165.837 175.456 165.961L175.084 166.904C174.117 166.662 173.472 166.323 173.15 165.889C172.831 165.446 172.82 164.85 173.116 164.1L174.41 160.823L173.212 160.351L173.613 159.335L174.811 159.808L175.355 158.429L176.531 158.53L175.863 160.223L177.471 160.858L177.07 161.874ZM179.402 162.795C180.045 162.182 180.822 162.055 181.733 162.415L181.298 163.515C180.792 163.287 180.294 163.249 179.806 163.401C179.317 163.553 178.943 163.959 178.682 164.62L177.416 167.825L176.364 167.409L178.752 161.364L179.804 161.779L179.402 162.795ZM187.394 164.776L188.446 165.192L186.059 171.237L185.007 170.822L185.418 169.782C184.579 170.373 183.659 170.472 182.66 170.077C181.813 169.743 181.213 169.151 180.858 168.303C180.507 167.447 180.506 166.576 180.856 165.689C181.206 164.802 181.801 164.17 182.639 163.793C183.481 163.408 184.325 163.382 185.171 163.717C186.171 164.111 186.775 164.811 186.984 165.816L187.394 164.776ZM183.194 169.114C183.807 169.356 184.4 169.352 184.973 169.103C185.55 168.846 185.959 168.412 186.201 167.799C186.443 167.186 186.439 166.593 186.19 166.02C185.945 165.438 185.516 165.027 184.903 164.785C184.299 164.546 183.708 164.555 183.131 164.812C182.558 165.061 182.15 165.492 181.908 166.104C181.666 166.717 181.668 167.314 181.914 167.895C182.163 168.469 182.589 168.875 183.194 169.114ZM187.653 171.867L191.138 163.04L192.19 163.455L188.705 172.282L187.653 171.867ZM193.663 165.98C193.462 165.9 193.32 165.765 193.237 165.574C193.154 165.382 193.151 165.19 193.227 164.997C193.303 164.803 193.437 164.665 193.628 164.582C193.823 164.491 194.021 164.485 194.222 164.565C194.416 164.641 194.552 164.779 194.632 164.978C194.715 165.169 194.718 165.362 194.642 165.555C194.565 165.749 194.432 165.887 194.24 165.97C194.049 166.053 193.857 166.056 193.663 165.98ZM190.31 172.916L192.697 166.87L193.749 167.285L191.362 173.331L190.31 172.916ZM200.36 169.896L201.412 170.311L199.025 176.357L197.973 175.941L198.383 174.901C197.544 175.493 196.625 175.591 195.625 175.196C194.779 174.862 194.178 174.271 193.824 173.423C193.472 172.566 193.472 171.695 193.822 170.808C194.172 169.921 194.766 169.29 195.604 168.912C196.446 168.527 197.29 168.502 198.137 168.836C199.136 169.231 199.74 169.93 199.949 170.935L200.36 169.896ZM196.159 174.233C196.772 174.475 197.365 174.471 197.938 174.223C198.515 173.966 198.924 173.531 199.166 172.918C199.408 172.306 199.405 171.713 199.156 171.139C198.91 170.558 198.481 170.146 197.868 169.904C197.264 169.665 196.673 169.675 196.097 169.931C195.523 170.18 195.116 170.611 194.874 171.224C194.632 171.836 194.634 172.433 194.879 173.015C195.128 173.588 195.555 173.994 196.159 174.233Z" fill="#D9D9D9"/>
</svg>
