<svg width="293" height="185" viewBox="0 0 293 185" fill="none" xmlns="http://www.w3.org/2000/svg">
<rect x="44.4337" y="53.8127" width="237" height="187" rx="5" transform="rotate(8.66613 44.4337 53.8127)" fill="#052ABD"/>
<path d="M147.328 124.249C156.405 125.775 165.001 119.654 166.528 110.577C168.054 101.499 161.933 92.9034 152.855 91.377C143.778 89.8506 135.182 95.9719 133.656 105.049C132.129 114.127 138.251 122.722 147.328 124.249Z" fill="white"/>
<path d="M145.161 106.984L147.895 110.824L155.575 105.355" stroke="black" stroke-width="1.5" stroke-linecap="round" stroke-linejoin="round"/>
<path d="M88.2666 137.297C89.2869 137.469 90.0762 137.953 90.6345 138.75C91.205 139.538 91.4054 140.437 91.2356 141.447C91.0675 142.446 90.5842 143.231 89.7855 143.799C88.9973 144.37 88.093 144.569 87.0727 144.398L84.5323 143.971L83.869 147.915L82.4016 147.668L84.2589 136.623L88.2666 137.297ZM87.3035 143.025C87.9136 143.128 88.453 143.007 88.9217 142.664C89.3922 142.311 89.6796 141.824 89.784 141.203C89.8901 140.572 89.7778 140.018 89.447 139.54C89.1163 139.063 88.6459 138.773 88.0358 138.67L85.4954 138.243L84.7632 142.598L87.3035 143.025ZM98.8244 142.318L100.197 142.548L98.8706 150.438L97.4978 150.207L97.726 148.85C96.8672 149.776 95.7856 150.13 94.4812 149.911C93.3767 149.725 92.5025 149.167 91.8585 148.236C91.2163 147.296 90.9925 146.247 91.187 145.09C91.3816 143.932 91.9353 143.02 92.8481 142.351C93.7627 141.672 94.7723 141.425 95.8768 141.611C97.1811 141.83 98.0876 142.518 98.5962 143.675L98.8244 142.318ZM94.8776 148.614C95.6771 148.749 96.3901 148.593 97.0168 148.147C97.6453 147.69 98.0267 147.062 98.1611 146.262C98.2956 145.463 98.1396 144.75 97.6934 144.123C97.2489 143.486 96.6269 143.1 95.8275 142.966C95.0386 142.833 94.3299 142.995 93.7014 143.452C93.0747 143.898 92.6942 144.521 92.5598 145.32C92.4253 146.12 92.5804 146.838 93.0249 147.475C93.4711 148.102 94.0887 148.482 94.8776 148.614ZM107.784 143.824L109.251 144.071L104.623 151.908C104.136 152.746 103.549 153.344 102.861 153.705C102.182 154.077 101.452 154.171 100.672 153.986L100.887 152.708C101.842 152.944 102.643 152.527 103.288 151.456L103.48 151.18L101.362 142.744L102.829 142.991L104.471 149.627L107.784 143.824ZM118.952 145.491C119.836 145.64 120.502 146.049 120.952 146.72C121.404 147.38 121.547 148.199 121.383 149.177L120.557 154.084L119.185 153.854L120.002 148.994C120.105 148.384 120.026 147.884 119.767 147.494C119.508 147.104 119.116 146.865 118.59 146.777C118.001 146.678 117.494 146.798 117.069 147.138C116.657 147.469 116.382 148.039 116.246 148.849L115.508 153.235L114.136 153.005L114.953 148.145C115.055 147.535 114.982 147.036 114.734 146.648C114.496 146.262 114.119 146.025 113.604 145.939C113.025 145.841 112.508 145.96 112.052 146.294C111.606 146.63 111.315 147.198 111.181 147.997L110.443 152.384L109.071 152.153L110.397 144.264L111.77 144.494L111.592 145.552C112.27 144.8 113.125 144.511 114.156 144.685C115.218 144.863 115.916 145.44 116.249 146.416C116.947 145.614 117.848 145.306 118.952 145.491ZM123.981 151.253C123.999 151.981 124.228 152.582 124.667 153.056C125.117 153.532 125.715 153.832 126.462 153.958C127.504 154.133 128.326 153.876 128.928 153.188L129.984 154.047C129.017 155.107 127.76 155.506 126.213 155.246C124.961 155.036 124.007 154.475 123.349 153.564C122.703 152.644 122.481 151.585 122.682 150.386C122.882 149.197 123.432 148.273 124.333 147.613C125.234 146.953 126.294 146.726 127.514 146.931C128.671 147.126 129.544 147.694 130.132 148.637C130.732 149.57 130.935 150.611 130.743 151.757C130.709 151.957 130.659 152.159 130.592 152.365L123.981 151.253ZM127.297 148.225C126.56 148.101 125.915 148.209 125.36 148.548C124.807 148.877 124.415 149.379 124.182 150.054L129.452 150.94C129.462 150.174 129.263 149.556 128.855 149.087C128.447 148.618 127.928 148.331 127.297 148.225ZM136.95 148.518C137.875 148.673 138.568 149.092 139.026 149.775C139.486 150.448 139.632 151.283 139.464 152.283L138.65 157.127L137.277 156.896L138.078 152.131C138.186 151.489 138.096 150.966 137.807 150.56C137.52 150.144 137.071 149.885 136.461 149.782C135.778 149.667 135.189 149.79 134.696 150.15C134.204 150.5 133.884 151.117 133.736 152.001L133.033 156.182L131.66 155.951L132.986 148.062L134.359 148.293L134.168 149.429C134.876 148.629 135.803 148.325 136.95 148.518ZM145.962 151.607L143.863 151.254L143.144 155.53C143.079 155.919 143.105 156.21 143.224 156.403C143.356 156.588 143.578 156.712 143.892 156.775C144.207 156.828 144.598 156.883 145.065 156.94L144.858 158.171C143.632 158.127 142.77 157.884 142.271 157.443C141.773 156.992 141.607 156.277 141.771 155.299L142.49 151.023L140.928 150.76L141.151 149.435L142.713 149.698L143.016 147.899L144.457 147.719L144.086 149.928L146.184 150.281L145.962 151.607ZM154.147 159.944C153.116 159.77 152.274 159.38 151.619 158.772C150.974 158.166 150.575 157.418 150.422 156.527L151.807 156.013C152.013 157.421 152.885 158.255 154.42 158.513C155.178 158.64 155.782 158.585 156.233 158.347C156.686 158.099 156.955 157.717 157.042 157.202C157.13 156.676 156.997 156.248 156.641 155.917C156.286 155.587 155.665 155.196 154.778 154.744C154.34 154.519 154.007 154.344 153.779 154.219C153.553 154.084 153.271 153.896 152.933 153.655C152.607 153.406 152.371 153.171 152.224 152.952C152.079 152.722 151.959 152.437 151.865 152.096C151.781 151.758 151.773 151.389 151.84 150.989C152.001 150.032 152.465 149.331 153.232 148.887C154.001 148.432 154.869 148.286 155.837 148.449C156.71 148.595 157.43 148.944 157.998 149.493C158.575 150.045 158.966 150.711 159.17 151.491L157.82 151.995C157.538 150.779 156.797 150.07 155.598 149.869C154.998 149.768 154.49 149.834 154.072 150.066C153.654 150.299 153.403 150.668 153.318 151.173C153.237 151.657 153.349 152.054 153.653 152.365C153.958 152.676 154.513 153.039 155.319 153.456C155.608 153.602 155.813 153.707 155.932 153.77C156.051 153.833 156.233 153.94 156.478 154.089C156.734 154.24 156.92 154.358 157.036 154.442C157.151 154.527 157.304 154.644 157.495 154.795C157.697 154.948 157.841 155.086 157.929 155.209C158.016 155.332 158.115 155.484 158.225 155.665C158.348 155.837 158.427 156.007 158.464 156.175C158.501 156.344 158.522 156.537 158.529 156.754C158.548 156.963 158.538 157.183 158.499 157.414C158.336 158.382 157.854 159.096 157.052 159.556C156.252 160.005 155.283 160.135 154.147 159.944ZM166.366 153.675L167.739 153.906L166.412 161.795L165.039 161.564L165.23 160.428C164.523 161.228 163.595 161.532 162.449 161.339C161.523 161.184 160.83 160.77 160.37 160.098C159.911 159.415 159.766 158.574 159.934 157.574L160.749 152.73L162.122 152.961L161.32 157.726C161.212 158.368 161.302 158.897 161.589 159.313C161.878 159.718 162.327 159.972 162.937 160.075C163.621 160.19 164.209 160.072 164.7 159.722C165.193 159.362 165.514 158.74 165.663 157.856L166.366 153.675ZM172.175 162.975C170.987 162.775 170.064 162.214 169.408 161.293C168.754 160.361 168.525 159.306 168.723 158.127C168.922 156.949 169.481 156.032 170.403 155.376C171.326 154.709 172.382 154.476 173.571 154.676C174.349 154.806 175.017 155.113 175.574 155.596C176.133 156.069 176.512 156.646 176.711 157.329L175.447 157.798C175.318 157.344 175.064 156.955 174.686 156.632C174.318 156.31 173.871 156.105 173.346 156.017C172.557 155.884 171.849 156.041 171.222 156.487C170.606 156.935 170.231 157.559 170.096 158.358C169.964 159.147 170.115 159.854 170.551 160.479C170.997 161.106 171.615 161.485 172.404 161.618C172.93 161.707 173.423 161.665 173.885 161.494C174.348 161.312 174.725 161.03 175.017 160.646L176.071 161.521C175.63 162.085 175.062 162.503 174.367 162.776C173.674 163.038 172.943 163.104 172.175 162.975ZM180.681 164.405C179.492 164.205 178.57 163.645 177.914 162.723C177.259 161.791 177.031 160.736 177.229 159.558C177.427 158.38 177.987 157.462 178.909 156.806C179.832 156.139 180.888 155.906 182.077 156.106C182.855 156.237 183.523 156.544 184.08 157.027C184.638 157.499 185.017 158.077 185.216 158.759L183.953 159.228C183.824 158.774 183.57 158.385 183.192 158.062C182.824 157.74 182.377 157.535 181.851 157.447C181.062 157.314 180.354 157.471 179.728 157.917C179.112 158.365 178.736 158.989 178.602 159.789C178.469 160.577 178.621 161.284 179.056 161.909C179.503 162.536 180.12 162.916 180.909 163.048C181.435 163.137 181.929 163.095 182.39 162.924C182.854 162.742 183.231 162.46 183.523 162.076L184.576 162.951C184.135 163.515 183.567 163.933 182.872 164.206C182.179 164.468 181.449 164.534 180.681 164.405ZM187.033 161.855C187.051 162.583 187.28 163.184 187.719 163.658C188.169 164.134 188.768 164.435 189.515 164.56C190.556 164.735 191.378 164.479 191.98 163.79L193.037 164.649C192.069 165.709 190.812 166.109 189.266 165.849C188.014 165.638 187.059 165.078 186.401 164.166C185.755 163.247 185.533 162.187 185.735 160.988C185.935 159.799 186.485 158.875 187.385 158.215C188.286 157.555 189.346 157.328 190.566 157.533C191.724 157.728 192.596 158.296 193.184 159.239C193.784 160.173 193.988 161.213 193.795 162.36C193.761 162.559 193.711 162.762 193.644 162.967L187.033 161.855ZM190.349 158.827C189.613 158.703 188.967 158.811 188.412 159.151C187.86 159.479 187.467 159.981 187.234 160.656L192.504 161.542C192.514 160.776 192.315 160.158 191.907 159.69C191.5 159.221 190.98 158.933 190.349 158.827ZM196.556 160.942C196.504 161.247 196.615 161.52 196.889 161.76C197.164 161.99 197.507 162.2 197.919 162.388C198.332 162.565 198.743 162.764 199.149 162.984C199.557 163.193 199.885 163.497 200.131 163.896C200.38 164.283 200.459 164.746 200.369 165.282C200.249 165.997 199.873 166.524 199.243 166.861C198.624 167.201 197.883 167.298 197.02 167.153C196.252 167.024 195.623 166.745 195.133 166.316C194.642 165.888 194.328 165.375 194.191 164.779L195.488 164.299C195.551 164.699 195.737 165.039 196.047 165.318C196.357 165.597 196.754 165.778 197.238 165.859C197.69 165.935 198.078 165.914 198.401 165.795C198.725 165.666 198.918 165.417 198.98 165.049C199.032 164.744 198.92 164.476 198.645 164.246C198.372 164.005 198.028 163.796 197.615 163.618C197.203 163.43 196.794 163.226 196.387 163.006C195.981 162.787 195.653 162.483 195.405 162.095C195.156 161.707 195.076 161.25 195.165 160.724C195.28 160.04 195.637 159.522 196.237 159.168C196.848 158.817 197.553 158.708 198.353 158.843C198.994 158.951 199.538 159.193 199.983 159.571C200.44 159.94 200.751 160.403 200.917 160.961L199.656 161.414C199.486 160.693 198.979 160.262 198.138 160.121C197.749 160.055 197.401 160.094 197.096 160.238C196.792 160.37 196.612 160.605 196.556 160.942ZM203.289 162.074C203.238 162.379 203.349 162.652 203.622 162.893C203.897 163.123 204.241 163.332 204.652 163.52C205.066 163.698 205.476 163.897 205.883 164.116C206.291 164.326 206.618 164.629 206.865 165.028C207.114 165.416 207.193 165.878 207.102 166.414C206.982 167.13 206.607 167.656 205.977 167.994C205.357 168.333 204.616 168.43 203.754 168.285C202.986 168.156 202.357 167.877 201.866 167.448C201.376 167.02 201.062 166.507 200.924 165.911L202.222 165.431C202.284 165.831 202.471 166.171 202.781 166.45C203.091 166.729 203.488 166.91 203.971 166.991C204.424 167.067 204.811 167.046 205.134 166.927C205.459 166.798 205.652 166.549 205.714 166.181C205.765 165.876 205.653 165.608 205.378 165.378C205.105 165.138 204.762 164.928 204.348 164.751C203.936 164.562 203.527 164.358 203.121 164.139C202.714 163.919 202.387 163.615 202.138 163.227C201.89 162.839 201.81 162.382 201.898 161.856C202.013 161.173 202.371 160.654 202.971 160.301C203.582 159.949 204.287 159.84 205.086 159.975C205.728 160.083 206.271 160.326 206.716 160.703C207.173 161.072 207.485 161.536 207.651 162.093L206.39 162.547C206.219 161.826 205.713 161.394 204.871 161.253C204.482 161.188 204.135 161.226 203.83 161.37C203.526 161.503 203.346 161.737 203.289 162.074Z" fill="white"/>
</svg>
