<svg width="238" height="184" viewBox="0 0 238 184" fill="none" xmlns="http://www.w3.org/2000/svg">
<rect y="92.4186" width="237" height="187" rx="5" transform="rotate(-22.9515 0 92.4186)" fill="#052ABD"/>
<path d="M27.7064 93.2829C28.7598 92.8368 29.7919 92.8428 30.8025 93.301C31.8175 93.7486 32.5542 94.5139 33.0128 95.5968C33.4714 96.6797 33.5098 97.7451 33.1282 98.7928C32.7508 99.8301 32.0354 100.572 30.982 101.018L27.9653 102.295L24.6897 94.5604L27.7064 93.2829ZM30.5702 100.045C31.3584 99.7117 31.886 99.1625 32.153 98.3978C32.42 97.6332 32.3787 96.8384 32.0293 96.0133C31.6799 95.1882 31.1378 94.6055 30.4029 94.2651C29.668 93.9248 28.9064 93.9215 28.1182 94.2553L26.1292 95.0976L28.5812 100.888L30.5702 100.045ZM40.1656 96.3079C39.8354 97.1079 39.2652 97.6796 38.4549 98.0227C37.6445 98.3659 36.8372 98.3776 36.0329 98.058C35.2359 97.7352 34.6643 97.1649 34.318 96.3472C33.9718 95.5295 33.96 94.7222 34.2828 93.9253C34.6129 93.1252 35.1832 92.5536 35.9935 92.2104C36.8038 91.8672 37.6112 91.8555 38.4155 92.1751C39.2198 92.4948 39.7951 93.0635 40.1414 93.8812C40.4877 94.6989 40.4957 95.5078 40.1656 96.3079ZM38.0571 97.0835C38.6096 96.8495 38.9942 96.4651 39.2108 95.9303C39.4274 95.3955 39.4171 94.8482 39.18 94.2883C38.9429 93.7284 38.557 93.3402 38.0222 93.1236C37.4874 92.907 36.9438 92.9157 36.3912 93.1497C35.8461 93.3805 35.4652 93.7633 35.2486 94.2981C35.032 94.8329 35.0423 95.3803 35.2794 95.9401C35.5165 96.5 35.9024 96.8882 36.4372 97.1048C36.972 97.3214 37.512 97.3143 38.0571 97.0835ZM45.1022 95.2077C44.2697 95.5603 43.4603 95.5773 42.6738 95.2587C41.8842 94.9328 41.3147 94.3573 40.9653 93.5323C40.6159 92.7072 40.6005 91.9014 40.919 91.115C41.2344 90.3211 41.8083 89.748 42.6408 89.3954C43.1859 89.1646 43.7319 89.0897 44.2789 89.1709C44.8227 89.2446 45.295 89.4573 45.6958 89.8088L45.0857 90.6145C44.821 90.3791 44.5038 90.2354 44.1343 90.1834C43.7721 90.1283 43.4069 90.1787 43.0385 90.3347C42.486 90.5687 42.1015 90.953 41.8849 91.4878C41.6756 92.0195 41.6896 92.5653 41.9267 93.1252C42.1606 93.6777 42.5413 94.0638 43.0688 94.2835C43.6036 94.5001 44.1472 94.4914 44.6997 94.2574C45.0681 94.1015 45.3637 93.8764 45.5866 93.5821C45.8064 93.2806 45.9313 92.9497 45.9612 92.5895L46.9801 92.7184C46.9284 93.2528 46.7377 93.7463 46.408 94.1986C46.0752 94.6436 45.6399 94.98 45.1022 95.2077ZM49.9601 86.4653L50.9214 86.0582L53.2612 91.5832L52.2998 91.9903L51.9629 91.1947C51.8376 91.9862 51.3735 92.552 50.5705 92.892C49.9223 93.1665 49.3171 93.1839 48.7551 92.9441C48.19 92.6969 47.7592 92.2234 47.4629 91.5235L46.0263 88.1312L46.9876 87.7241L48.4008 91.0612C48.5911 91.5105 48.8609 91.809 49.21 91.9565C49.5561 92.0966 49.9427 92.0763 50.37 91.8953C50.8488 91.6925 51.1732 91.3814 51.3431 90.962C51.5098 90.5352 51.4622 90.0123 51.2001 89.3935L49.9601 86.4653ZM58.2912 82.7678C58.91 82.5058 59.4968 82.4962 60.0514 82.7392C60.6029 82.9748 61.0238 83.4351 61.3139 84.1202L62.7692 87.5568L61.8078 87.9639L60.3666 84.5605C60.1856 84.1332 59.9347 83.8485 59.6139 83.7064C59.2931 83.5642 58.9485 83.5711 58.5802 83.7271C58.1676 83.9018 57.8954 84.1822 57.7635 84.5682C57.6358 84.9437 57.6921 85.415 57.9323 85.9823L59.2332 89.0542L58.2718 89.4613L56.8306 86.0579C56.6496 85.6306 56.4024 85.3444 56.089 85.1991C55.7829 85.0507 55.4493 85.0529 55.0884 85.2058C54.6832 85.3774 54.4036 85.6608 54.2496 86.0562C54.1029 86.4484 54.1481 86.9245 54.3852 87.4844L55.6861 90.5563L54.7248 90.9634L52.3851 85.4384L53.3464 85.0313L53.6599 85.7716C53.7861 85.0232 54.2101 84.4961 54.932 84.1904C55.6761 83.8753 56.3501 83.9591 56.9541 84.4418C57.072 83.6534 57.5177 83.0954 58.2912 82.7678ZM63.7936 84.3863C64.0983 84.8393 64.4852 85.1273 64.9543 85.2501C65.4307 85.3698 65.9304 85.3189 66.4534 85.0974C67.1827 84.7886 67.5992 84.2951 67.703 83.6169L68.7172 83.7347C68.532 84.7949 67.8979 85.5543 66.815 86.0129C65.9384 86.3841 65.1084 86.4141 64.325 86.103C63.5459 85.7813 62.9786 85.2006 62.6229 84.3608C62.2704 83.5284 62.246 82.722 62.5498 81.9418C62.8536 81.1616 63.4328 80.5905 64.2873 80.2286C65.0977 79.8855 65.8787 79.8936 66.6303 80.2529C67.3862 80.6018 67.9341 81.1777 68.2742 81.9807C68.3334 82.1206 68.3832 82.269 68.4235 82.4256L63.7936 84.3863ZM64.6711 81.1347C64.1554 81.3531 63.7905 81.6814 63.5764 82.1195C63.3592 82.5503 63.3131 83.026 63.4379 83.5465L67.1286 81.9836C66.8261 81.4949 66.4514 81.1844 66.0044 81.0522C65.5575 80.9201 65.1131 80.9476 64.6711 81.1347ZM70.8953 77.4303C71.5436 77.1558 72.1503 77.1421 72.7154 77.3893C73.2775 77.6291 73.7066 78.099 74.003 78.7988L75.4396 82.1912L74.4782 82.5983L73.0651 79.2612C72.8748 78.8118 72.6066 78.517 72.2605 78.3769C71.9114 78.2294 71.5232 78.2461 71.0959 78.427C70.617 78.6298 70.2943 78.9446 70.1275 79.3714C69.9576 79.7908 70.0037 80.31 70.2657 80.9288L71.5058 83.857L70.5444 84.2641L68.2047 78.7391L69.1661 78.332L69.503 79.1276C69.6283 78.3361 70.0924 77.7703 70.8953 77.4303ZM77.8406 75.7532L76.371 76.3756L77.6391 79.3701C77.7545 79.6427 77.8887 79.8161 78.0418 79.8903C78.1991 79.954 78.3898 79.9427 78.6139 79.8565C78.8349 79.7629 79.1044 79.6401 79.4223 79.4881L79.7873 80.35C78.9942 80.8162 78.3511 81.0103 77.8577 80.9326C77.3612 80.8475 76.9679 80.4623 76.6777 79.7772L75.4096 76.7827L74.3157 77.2459L73.9226 76.3177L75.0165 75.8545L74.4831 74.5948L75.3228 73.9004L75.9779 75.4474L77.4475 74.825L77.8406 75.7532ZM85.4091 69.9939L81.9836 71.4446L83.0458 73.9529L86.3277 72.5631L86.7395 73.5355L83.4576 74.9253L84.8474 78.2072L83.8197 78.6424L80.5441 70.9073L84.9973 69.0215L85.4091 69.9939ZM93.7863 73.6008C93.4561 74.4009 92.8859 74.9725 92.0755 75.3156C91.2652 75.6588 90.4579 75.6705 89.6536 75.3509C88.8566 75.0281 88.285 74.4579 87.9387 73.6402C87.5924 72.8225 87.5807 72.0151 87.9034 71.2182C88.2336 70.4181 88.8038 69.8465 89.6142 69.5033C90.4245 69.1602 91.2318 69.1484 92.0362 69.4681C92.8405 69.7877 93.4158 70.3564 93.7621 71.1741C94.1083 71.9918 94.1164 72.8007 93.7863 73.6008ZM91.6778 74.3764C92.2303 74.1424 92.6148 73.758 92.8314 73.2232C93.048 72.6884 93.0378 72.1411 92.8007 71.5812C92.5636 71.0214 92.1777 70.6331 91.6429 70.4165C91.1081 70.1999 90.5644 70.2086 90.0119 70.4426C89.4668 70.6734 89.0859 71.0563 88.8693 71.5911C88.6527 72.1259 88.663 72.6732 88.9001 73.2331C89.1371 73.7929 89.5231 74.1812 90.0579 74.3978C90.5927 74.6144 91.1327 74.6072 91.6778 74.3764ZM95.0799 68.4528C95.1066 67.6335 95.5361 67.0476 96.3686 66.6951L96.7944 67.7007C96.3136 67.8782 95.9614 68.175 95.738 68.5911C95.5145 69.0072 95.5307 69.5172 95.7865 70.1213L97.0266 73.0496L96.0652 73.4567L93.7255 67.9317L94.6869 67.5246L95.0799 68.4528Z" fill="white"/>
<path d="M51.6923 141.768L52.72 141.333L55.9956 149.068L55.1668 149.419L48.7415 145.324L51.1888 151.103L50.1612 151.538L46.8856 143.803L47.7143 143.452L54.135 147.536L51.6923 141.768ZM59.7857 140.947L60.7471 140.54L63.0868 146.065L62.1254 146.472L61.723 145.521C61.553 146.454 61.0113 147.113 60.0978 147.5C59.3243 147.827 58.5464 147.827 57.7642 147.498C56.9789 147.161 56.4146 146.588 56.0715 145.778C55.7283 144.967 55.7107 144.167 56.0188 143.376C56.3237 142.578 56.8629 142.015 57.6364 141.687C58.5499 141.301 59.4005 141.37 60.1881 141.897L59.7857 140.947ZM59.8263 146.52C60.3861 146.283 60.7744 145.897 60.991 145.362C61.2045 144.82 61.1927 144.269 60.9556 143.709C60.7185 143.149 60.3325 142.761 59.7977 142.545C59.2598 142.321 58.7109 142.327 58.151 142.564C57.5985 142.798 57.2156 143.186 57.0021 143.728C56.7855 144.263 56.7957 144.811 57.0328 145.37C57.2699 145.93 57.6574 146.322 58.1953 146.546C58.7301 146.763 59.2738 146.754 59.8263 146.52ZM65.6023 139.578L64.1326 140.201L65.4007 143.195C65.5162 143.468 65.6504 143.641 65.8035 143.715C65.9607 143.779 66.1515 143.768 66.3756 143.681C66.5966 143.588 66.866 143.465 67.1839 143.313L67.5489 144.175C66.7559 144.641 66.1127 144.835 65.6193 144.758C65.1228 144.672 64.7295 144.287 64.4394 143.602L63.1713 140.608L62.0773 141.071L61.6842 140.143L62.7782 139.679L62.2447 138.42L63.0844 137.725L63.7395 139.272L65.2092 138.65L65.6023 139.578ZM66.4077 136.957C66.2236 137.035 66.0423 137.037 65.8641 136.965C65.6858 136.893 65.5592 136.769 65.4844 136.592C65.4095 136.415 65.4082 136.237 65.4804 136.059C65.5494 135.874 65.6761 135.742 65.8602 135.664C66.037 135.589 66.2161 135.591 66.3975 135.671C66.5758 135.743 66.7024 135.867 66.7772 136.044C66.8521 136.221 66.8534 136.399 66.7812 136.577C66.709 136.755 66.5845 136.882 66.4077 136.957ZM68.6871 143.693L66.3474 138.168L67.3087 137.761L69.6484 143.286L68.6871 143.693ZM75.4834 139.994C75.1532 140.794 74.583 141.366 73.7726 141.709C72.9623 142.052 72.155 142.064 71.3506 141.744C70.5537 141.421 69.9821 140.851 69.6358 140.033C69.2895 139.216 69.2778 138.408 69.6005 137.611C69.9307 136.811 70.5009 136.24 71.3113 135.897C72.1216 135.553 72.9289 135.542 73.7333 135.861C74.5376 136.181 75.1129 136.75 75.4592 137.567C75.8054 138.385 75.8135 139.194 75.4834 139.994ZM73.3749 140.77C73.9274 140.536 74.3119 140.151 74.5285 139.616C74.7451 139.082 74.7349 138.534 74.4978 137.974C74.2607 137.415 73.8748 137.026 73.34 136.81C72.8052 136.593 72.2615 136.602 71.709 136.836C71.1639 137.067 70.783 137.449 70.5664 137.984C70.3498 138.519 70.3601 139.066 70.5971 139.626C70.8342 140.186 71.2202 140.574 71.755 140.791C72.2898 141.008 72.8298 141 73.3749 140.77ZM78.1132 133.016C78.7615 132.742 79.3682 132.728 79.9333 132.975C80.4954 133.215 80.9245 133.685 81.2209 134.385L82.6575 137.777L81.6961 138.184L80.283 134.847C80.0927 134.398 79.8245 134.103 79.4784 133.963C79.1293 133.815 78.741 133.832 78.3138 134.013C77.8349 134.216 77.5121 134.53 77.3454 134.957C77.1755 135.377 77.2216 135.896 77.4836 136.515L78.7237 139.443L77.7623 139.85L75.4226 134.325L76.384 133.918L76.7209 134.713C76.8462 133.922 77.3103 133.356 78.1132 133.016ZM86.2345 129.746L87.1959 129.339L89.5356 134.864L88.5743 135.271L88.1718 134.321C88.0018 135.253 87.4601 135.913 86.5466 136.299C85.7731 136.627 84.9953 136.626 84.213 136.297C83.4277 135.961 82.8634 135.387 82.5203 134.577C82.1771 133.767 82.1596 132.966 82.4676 132.175C82.7725 131.377 83.3118 130.815 84.0853 130.487C84.9987 130.1 85.8493 130.17 86.637 130.697L86.2345 129.746ZM86.2751 135.32C86.835 135.083 87.2232 134.697 87.4398 134.162C87.6533 133.62 87.6415 133.069 87.4044 132.509C87.1673 131.949 86.7814 131.561 86.2466 131.344C85.7086 131.12 85.1597 131.127 84.5999 131.364C84.0474 131.598 83.6644 131.986 83.4509 132.528C83.2343 133.063 83.2446 133.61 83.4816 134.17C83.7187 134.73 84.1062 135.122 84.6442 135.346C85.179 135.562 85.7226 135.554 86.2751 135.32ZM90.9921 134.247L87.5762 126.181L88.5375 125.774L91.9535 133.84L90.9921 134.247ZM91.1408 126.483C90.9566 126.561 90.7754 126.564 90.5971 126.491C90.4189 126.419 90.2923 126.295 90.2174 126.118C90.1426 125.941 90.1412 125.764 90.2134 125.585C90.2825 125.4 90.4091 125.268 90.5933 125.19C90.7701 125.115 90.9492 125.117 91.1306 125.197C91.3088 125.269 91.4354 125.394 91.5103 125.57C91.5852 125.747 91.5865 125.925 91.5143 126.103C91.4421 126.281 91.3176 126.408 91.1408 126.483ZM93.4201 133.219L91.0804 127.694L92.0418 127.287L94.3815 132.812L93.4201 133.219ZM96.9071 126.321L95.4374 126.944L96.7055 129.938C96.821 130.211 96.9552 130.384 97.1083 130.458C97.2655 130.522 97.4563 130.511 97.6804 130.425C97.9014 130.331 98.1708 130.208 98.4887 130.056L98.8537 130.918C98.0607 131.384 97.4175 131.578 96.9241 131.501C96.4276 131.416 96.0343 131.03 95.7442 130.345L94.4761 127.351L93.3821 127.814L92.989 126.886L94.083 126.423L93.5495 125.163L94.3892 124.469L95.0444 126.016L96.514 125.393L96.9071 126.321ZM101.627 123.228L102.655 122.793L102.886 129.615C102.915 130.341 102.785 130.956 102.495 131.461C102.215 131.971 101.791 132.324 101.223 132.521L100.844 131.626C101.544 131.391 101.882 130.804 101.859 129.867L101.869 129.615L97.13 125.132L98.1576 124.697L101.87 128.233L101.627 123.228Z" fill="white"/>
<path d="M72.9308 191.416C73.9842 190.97 75.0163 190.976 76.027 191.434C77.0419 191.882 77.7786 192.647 78.2372 193.73C78.6958 194.813 78.7343 195.878 78.3526 196.926C77.9752 197.963 77.2598 198.705 76.2064 199.151L73.1897 200.429L69.9141 192.694L72.9308 191.416ZM75.7946 198.179C76.5828 197.845 77.1104 197.296 77.3774 196.531C77.6444 195.766 77.6032 194.972 77.2538 194.147C76.9044 193.321 76.3622 192.739 75.6273 192.398C74.8924 192.058 74.1308 192.055 73.3426 192.389L71.3536 193.231L73.8056 199.021L75.7946 198.179ZM83.2567 189.65L84.2181 189.243L86.5578 194.768L85.5964 195.175L85.194 194.224C85.024 195.156 84.4823 195.816 83.5688 196.203C82.7953 196.53 82.0174 196.53 81.2352 196.201C80.4499 195.864 79.8856 195.291 79.5424 194.481C79.1993 193.67 79.1817 192.87 79.4898 192.079C79.7947 191.281 80.3339 190.718 81.1074 190.39C82.0209 190.004 82.8715 190.073 83.6591 190.6L83.2567 189.65ZM83.2973 195.223C83.8571 194.986 84.2454 194.6 84.462 194.065C84.6755 193.523 84.6636 192.972 84.4266 192.412C84.1895 191.852 83.8035 191.464 83.2687 191.248C82.7308 191.024 82.1819 191.03 81.622 191.267C81.0695 191.501 80.6865 191.889 80.4731 192.431C80.2565 192.966 80.2667 193.514 80.5038 194.073C80.7409 194.633 81.1284 195.025 81.6663 195.249C82.2011 195.466 82.7448 195.457 83.2973 195.223ZM89.0733 188.281L87.6036 188.904L88.8717 191.898C88.9872 192.171 89.1214 192.344 89.2744 192.418C89.4317 192.482 89.6224 192.471 89.8466 192.384C90.0676 192.291 90.337 192.168 90.6549 192.016L91.0199 192.878C90.2269 193.344 89.5837 193.538 89.0903 193.461C88.5938 193.375 88.2005 192.99 87.9104 192.305L86.6423 189.311L85.5483 189.774L85.1552 188.846L86.2492 188.382L85.7157 187.123L86.5554 186.428L87.2105 187.975L88.6802 187.353L89.0733 188.281ZM91.5689 189.909C91.8736 190.362 92.2605 190.65 92.7296 190.773C93.206 190.892 93.7057 190.841 94.2287 190.62C94.958 190.311 95.3745 189.818 95.4783 189.139L96.4926 189.257C96.3073 190.317 95.6732 191.077 94.5903 191.535C93.7137 191.907 92.8837 191.937 92.1003 191.626C91.3212 191.304 90.7539 190.723 90.3982 189.883C90.0457 189.051 90.0214 188.245 90.3252 187.464C90.6289 186.684 91.2081 186.113 92.0626 185.751C92.873 185.408 93.654 185.416 94.4056 185.775C95.1615 186.124 95.7094 186.7 96.0495 187.503C96.1087 187.643 96.1585 187.792 96.1988 187.948L91.5689 189.909ZM92.4464 186.657C91.9307 186.876 91.5658 187.204 91.3517 187.642C91.1345 188.073 91.0884 188.549 91.2132 189.069L94.9039 187.506C94.6014 187.017 94.2267 186.707 93.7798 186.575C93.3328 186.443 92.8884 186.47 92.4464 186.657ZM104.415 185.994C103.972 187.102 103.191 187.893 102.071 188.367C100.952 188.842 99.8396 188.852 98.7354 188.399C97.6312 187.945 96.8436 187.163 96.3725 186.05C95.8984 184.93 95.8842 183.82 96.3302 182.719C96.773 181.611 97.5543 180.819 98.674 180.345C99.7938 179.871 100.906 179.86 102.01 180.314C103.118 180.757 103.91 181.538 104.384 182.658C104.855 183.77 104.865 184.882 104.415 185.994ZM99.1478 187.403C99.9657 187.734 100.798 187.721 101.645 187.362C102.493 187.003 103.078 186.416 103.402 185.602C103.73 184.776 103.715 183.94 103.356 183.093C102.994 182.238 102.404 181.645 101.586 181.314C100.773 180.972 99.9423 180.981 99.0952 181.34C98.248 181.698 97.6603 182.29 97.3322 183.116C97.0083 183.93 97.0273 184.765 97.3891 185.62C97.7479 186.467 98.3341 187.061 99.1478 187.403ZM107.054 177.891C106.047 178.222 105.739 178.848 106.129 179.768L106.199 179.934L107.658 179.316L108.051 180.245L106.592 180.862L108.539 185.459L107.577 185.866L105.631 181.269L104.747 181.644L104.354 180.716L105.238 180.341L105.168 180.175C104.853 179.431 104.82 178.781 105.07 178.223C105.328 177.662 105.858 177.242 106.661 176.963L107.054 177.891ZM113.55 178.606C113.976 178.626 114.358 178.751 114.699 178.98C115.047 179.206 115.308 179.526 115.483 179.938C115.745 180.557 115.747 181.169 115.49 181.773C115.234 182.376 114.792 182.811 114.166 183.076L110.829 184.489L107.553 176.754L110.647 175.444C111.251 175.188 111.849 175.174 112.441 175.401C113.032 175.629 113.454 176.041 113.707 176.638C113.997 177.323 113.945 177.979 113.55 178.606ZM111.054 176.405L108.988 177.281L109.989 179.645L112.056 178.77C112.38 178.633 112.604 178.403 112.728 178.081C112.853 177.759 112.845 177.433 112.704 177.101C112.567 176.777 112.336 176.549 112.011 176.417C111.69 176.275 111.371 176.271 111.054 176.405ZM113.759 182.115C114.105 181.968 114.345 181.723 114.477 181.381C114.61 181.038 114.602 180.689 114.452 180.336C114.305 179.989 114.059 179.746 113.713 179.606C113.374 179.463 113.036 179.463 112.697 179.606L110.387 180.584L111.449 183.093L113.759 182.115ZM115.248 174.916C115.064 174.994 114.883 174.997 114.705 174.925C114.527 174.853 114.4 174.728 114.325 174.551C114.25 174.374 114.249 174.197 114.321 174.019C114.39 173.833 114.517 173.701 114.701 173.623C114.878 173.548 115.057 173.551 115.238 173.63C115.417 173.702 115.543 173.827 115.618 174.004C115.693 174.181 115.694 174.358 115.622 174.536C115.55 174.715 115.425 174.841 115.248 174.916ZM117.528 181.653L115.188 176.128L116.149 175.72L118.489 181.245L117.528 181.653ZM118.97 175.62C118.997 174.801 119.427 174.215 120.259 173.863L120.685 174.868C120.204 175.046 119.852 175.343 119.629 175.759C119.405 176.175 119.421 176.685 119.677 177.289L120.917 180.217L119.956 180.624L117.616 175.099L118.577 174.692L118.97 175.62ZM124.77 173.164L123.3 173.787L124.568 176.781C124.684 177.054 124.818 177.227 124.971 177.302C125.128 177.365 125.319 177.354 125.543 177.268C125.764 177.174 126.034 177.051 126.352 176.899L126.717 177.761C125.924 178.227 125.28 178.422 124.787 178.344C124.291 178.259 123.897 177.874 123.607 177.188L122.339 174.194L121.245 174.657L120.852 173.729L121.946 173.266L121.412 172.006L122.252 171.312L122.907 172.859L124.377 172.236L124.77 173.164ZM128.206 170.445C128.854 170.171 129.461 170.157 130.026 170.404C130.588 170.644 131.017 171.114 131.313 171.814L132.75 175.206L131.789 175.613L130.375 172.276C130.185 171.827 129.917 171.532 129.571 171.392C129.222 171.245 128.834 171.261 128.406 171.442C127.927 171.645 127.605 171.96 127.438 172.387C127.268 172.806 127.314 173.325 127.576 173.944L128.816 176.872L127.855 177.279L124.579 169.544L125.541 169.137L126.813 172.143C126.939 171.351 127.403 170.785 128.206 170.445Z" fill="white"/>
<rect x="31.6915" y="112.12" width="192" height="23" rx="1.5" transform="rotate(-22.9515 31.6915 112.12)" stroke="#C8C8C8"/>
<rect x="53.2798" y="160.534" width="192" height="23" rx="1.5" transform="rotate(-22.9515 53.2798 160.534)" stroke="#C8C8C8"/>
<rect x="73.9472" y="209.339" width="192" height="23" rx="1.5" transform="rotate(-22.9515 73.9472 209.339)" stroke="#C8C8C8"/>
<path d="M51.29 112.617L51.5989 113.346L49.2231 114.352L52.1899 121.358L51.4164 121.686L48.4496 114.68L46.0739 115.686L45.765 114.957L51.29 112.617ZM58.9029 117.694C58.577 118.484 58.0089 119.05 57.1986 119.393C56.3882 119.737 55.5825 119.752 54.7813 119.44C53.9843 119.117 53.4127 118.547 53.0664 117.729C52.7201 116.911 52.71 116.108 53.0358 115.318C53.366 114.518 53.9362 113.946 54.7466 113.603C55.5569 113.26 56.3605 113.25 57.1575 113.573C57.9587 113.885 58.5325 114.45 58.8787 115.268C59.225 116.085 59.2331 116.894 58.9029 117.694ZM55.0854 118.711C55.6831 118.953 56.2877 118.945 56.8991 118.686C57.5105 118.427 57.9373 117.999 58.1794 117.401C58.4183 116.796 58.4084 116.188 58.1494 115.576C57.8905 114.965 57.4622 114.538 56.8645 114.296C56.2636 114.047 55.6575 114.051 55.046 114.31C54.4346 114.569 54.0094 115.001 53.7705 115.606C53.5284 116.204 53.5368 116.809 53.7957 117.42C54.0546 118.032 54.4845 118.462 55.0854 118.711ZM62.8189 110.341L63.5482 110.032L65.8879 115.557L65.1586 115.866L64.7936 115.004C64.6619 115.842 64.1834 116.435 63.3584 116.785C62.688 117.069 62.0718 117.091 61.5098 116.851C60.952 116.601 60.5265 116.129 60.2333 115.437L58.7967 112.044L59.526 111.736L60.9626 115.128C61.1716 115.621 61.4627 115.95 61.836 116.113C62.2166 116.274 62.6464 116.252 63.1252 116.05C63.6556 115.825 64.0163 115.477 64.2075 115.005C64.3955 114.526 64.3413 113.936 64.0449 113.236L62.8189 110.341ZM66.2087 109.987C66.2637 109.173 66.7037 108.592 67.5288 108.242L67.8282 108.95C67.3273 109.162 66.9735 109.485 66.7668 109.92C66.56 110.355 66.5908 110.89 66.8591 111.523L68.16 114.595L67.4307 114.904L65.091 109.379L65.8203 109.07L66.2087 109.987ZM68.7445 106.268C68.6851 106.415 68.5817 106.519 68.4343 106.582C68.287 106.644 68.1399 106.646 67.9931 106.586C67.8463 106.527 67.7417 106.423 67.6793 106.276C67.6169 106.129 67.6155 105.982 67.6749 105.835C67.7344 105.688 67.8378 105.583 67.9851 105.521C68.1324 105.459 68.2795 105.457 68.4263 105.517C68.5731 105.576 68.6777 105.679 68.7401 105.827C68.8025 105.974 68.804 106.121 68.7445 106.268ZM70.9054 113.432L68.5657 107.907L69.295 107.599L71.6347 113.124L70.9054 113.432ZM72.0302 108.147C72.1363 108.398 72.331 108.55 72.6144 108.604C72.8978 108.658 73.215 108.658 73.5661 108.605C73.9172 108.552 74.273 108.51 74.6334 108.479C74.9907 108.44 75.3298 108.492 75.6506 108.634C75.9683 108.769 76.2067 109.024 76.3658 109.4C76.5655 109.871 76.5399 110.334 76.2889 110.788C76.0454 111.238 75.629 111.589 75.0396 111.838C74.5092 112.063 74.0063 112.137 73.5307 112.06C73.0626 111.98 72.6753 111.784 72.3688 111.47L72.8332 110.844C73.058 111.087 73.3389 111.238 73.6758 111.295C74.017 111.342 74.3718 111.287 74.7401 111.131C75.1011 110.978 75.3735 110.78 75.5573 110.537C75.738 110.287 75.7644 110.011 75.6365 109.709C75.5305 109.458 75.3357 109.306 75.0523 109.252C74.769 109.199 74.4517 109.198 74.1006 109.251C73.7496 109.305 73.3953 109.35 73.038 109.389C72.6776 109.42 72.3385 109.368 72.0208 109.233C71.7 109.091 71.46 108.832 71.3009 108.456C71.1106 108.007 71.1283 107.556 71.354 107.105C71.5871 106.65 71.9762 106.307 72.5213 106.076C72.9707 105.886 73.4085 105.822 73.8347 105.885C74.2578 105.94 74.6237 106.107 74.9324 106.384L74.4744 106.995C74.0423 106.57 73.4912 106.499 72.8208 106.783C72.504 106.917 72.2642 107.11 72.1014 107.361C71.9354 107.606 71.9117 107.868 72.0302 108.147ZM78.8724 104.377L77.2812 105.051L78.699 108.399C78.8269 108.701 78.9779 108.893 79.1519 108.976C79.3228 109.051 79.5277 109.043 79.7665 108.95C80.0023 108.85 80.2938 108.718 80.6412 108.554L80.9126 109.195C80.189 109.64 79.5836 109.831 79.0965 109.768C78.6167 109.702 78.2411 109.349 77.9697 108.708L76.5519 105.36L75.3916 105.851L75.0921 105.144L76.2524 104.652L75.6908 103.326L76.3266 102.796L76.9817 104.343L78.5729 103.67L78.8724 104.377ZM87.0785 106.584L80.952 100.056L81.7918 99.7002L87.0411 105.387L86.6096 97.6599L87.4494 97.3043L87.8741 106.247L87.0785 106.584ZM89.2367 97.59C89.1772 97.7368 89.0738 97.8414 88.9265 97.9038C88.7792 97.9662 88.6321 97.9676 88.4853 97.9082C88.3385 97.8487 88.2339 97.7453 88.1715 97.598C88.1091 97.4506 88.1076 97.3036 88.1671 97.1568C88.2266 97.01 88.33 96.9054 88.4773 96.843C88.6246 96.7806 88.7717 96.7791 88.9185 96.8386C89.0653 96.898 89.1699 97.0014 89.2323 97.1488C89.2947 97.2961 89.2962 97.4432 89.2367 97.59ZM91.3976 104.755L89.0579 99.2295L89.7872 98.9206L92.1269 104.446L91.3976 104.755ZM92.5224 99.4695C92.6285 99.72 92.8232 99.8721 93.1066 99.9258C93.39 99.9796 93.7072 99.9799 94.0583 99.9268C94.4094 99.8737 94.7651 99.8316 95.1256 99.8006C95.4829 99.7622 95.822 99.8141 96.1428 99.9562C96.4605 100.091 96.6989 100.346 96.858 100.722C97.0577 101.193 97.032 101.656 96.7811 102.11C96.5376 102.56 96.1211 102.911 95.5318 103.16C95.0014 103.385 94.4984 103.459 94.0229 103.382C93.5547 103.302 93.1675 103.106 92.861 102.793L93.3254 102.166C93.5502 102.409 93.8311 102.56 94.168 102.617C94.5092 102.664 94.864 102.609 95.2323 102.453C95.5933 102.3 95.8657 102.102 96.0495 101.859C96.2302 101.609 96.2566 101.333 96.1287 101.031C96.0227 100.78 95.8279 100.628 95.5445 100.574C95.2611 100.521 94.9439 100.52 94.5928 100.574C94.2417 100.627 93.8875 100.672 93.5302 100.711C93.1698 100.742 92.8307 100.69 92.513 100.555C92.1922 100.413 91.9522 100.154 91.7931 99.7783C91.6028 99.329 91.6205 98.8784 91.8462 98.4266C92.0793 97.9717 92.4684 97.6289 93.0135 97.398C93.4629 97.2077 93.9006 97.1439 94.3269 97.2067C94.75 97.2621 95.1159 97.4286 95.4245 97.7062L94.9665 98.3172C94.5345 97.892 93.9833 97.8213 93.313 98.1052C92.9962 98.2393 92.7564 98.4321 92.5935 98.6835C92.4276 98.9276 92.4038 99.1896 92.5224 99.4695ZM100.942 94.1967L101.672 93.8879L104.011 99.4129L103.282 99.7217L102.823 98.6388C102.658 99.6644 102.086 100.385 101.106 100.8C100.318 101.133 99.5252 101.139 98.7282 100.816C97.9386 100.49 97.3723 99.9221 97.0291 99.1118C96.686 98.3014 96.6721 97.4994 96.9875 96.7055C97.3103 95.9086 97.8658 95.3432 98.654 95.0094C99.6338 94.5945 100.549 94.6846 101.401 95.2796L100.942 94.1967ZM99.0481 100.094C99.6458 100.336 100.25 100.328 100.862 100.069C101.473 99.8101 101.9 99.3817 102.142 98.784C102.381 98.1789 102.371 97.5707 102.112 96.9592C101.853 96.3478 101.425 95.921 100.827 95.679C100.226 95.4295 99.6202 95.4343 99.0087 95.6932C98.3973 95.9521 97.9721 96.3841 97.7331 96.9892C97.4911 97.5869 97.4995 98.1915 97.7584 98.8029C98.0173 99.4144 98.4472 99.8448 99.0481 100.094Z" fill="white"/>
<path d="M65.8771 160.738L66.6506 160.411L69.9262 168.146L69.1527 168.473L65.8771 160.738ZM71.7787 160.689C72.449 160.405 73.0631 160.388 73.6209 160.639C74.1829 160.878 74.6105 161.345 74.9038 162.037L76.3403 165.429L75.611 165.738L74.1745 162.346C73.9654 161.852 73.6706 161.525 73.29 161.365C72.9167 161.202 72.4907 161.221 72.0119 161.424C71.4815 161.649 71.1223 162.001 70.9343 162.48C70.7431 162.952 70.7958 163.538 71.0921 164.238L72.3181 167.133L71.5888 167.442L69.2491 161.917L69.9784 161.608L70.3434 162.47C70.4752 161.632 70.9536 161.038 71.7787 160.689ZM79.2264 155.085L79.9557 154.776L83.2313 162.511L82.502 162.82L82.0434 161.737C81.8783 162.763 81.3058 163.483 80.3261 163.898C79.5378 164.232 78.7452 164.237 77.9483 163.914C77.1587 163.589 76.5923 163.02 76.2492 162.21C75.906 161.4 75.8921 160.598 76.2075 159.804C76.5303 159.007 77.0858 158.442 77.8741 158.108C78.8538 157.693 79.7694 157.783 80.6209 158.378L79.2264 155.085ZM78.2681 163.193C78.8658 163.435 79.4704 163.426 80.0818 163.167C80.6933 162.908 81.12 162.48 81.3621 161.882C81.6011 161.277 81.5911 160.669 81.3322 160.058C81.0732 159.446 80.6449 159.019 80.0472 158.777C79.4464 158.528 78.8402 158.533 78.2288 158.792C77.6174 159.05 77.1922 159.482 76.9532 160.088C76.7111 160.685 76.7195 161.29 76.9785 161.901C77.2374 162.513 77.6673 162.943 78.2681 163.193ZM82.6146 154.693C82.5551 154.84 82.4517 154.944 82.3044 155.007C82.1571 155.069 82.01 155.07 81.8632 155.011C81.7164 154.952 81.6118 154.848 81.5494 154.701C81.487 154.553 81.4855 154.406 81.545 154.26C81.6045 154.113 81.7078 154.008 81.8552 153.946C82.0025 153.883 82.1496 153.882 82.2964 153.941C82.4432 154.001 82.5478 154.104 82.6102 154.252C82.6726 154.399 82.6741 154.546 82.6146 154.693ZM84.7755 161.857L82.4358 156.332L83.1651 156.023L85.5048 161.548L84.7755 161.857ZM89.4642 153.356L90.1935 153.047L92.5332 158.572L91.8039 158.881L91.3453 157.798C91.1802 158.824 90.6077 159.544 89.628 159.959C88.8397 160.293 88.0471 160.298 87.2502 159.975C86.4606 159.649 85.8942 159.081 85.551 158.271C85.2079 157.461 85.194 156.659 85.5094 155.865C85.8322 155.068 86.3877 154.502 87.1759 154.169C88.1557 153.754 89.0713 153.844 89.9228 154.439L89.4642 153.356ZM87.57 159.253C88.1677 159.496 88.7723 159.487 89.3837 159.228C89.9952 158.969 90.4219 158.541 90.664 157.943C90.903 157.338 90.893 156.73 90.634 156.118C90.3751 155.507 89.9468 155.08 89.3491 154.838C88.7482 154.589 88.1421 154.593 87.5307 154.852C86.9192 155.111 86.494 155.543 86.2551 156.148C86.013 156.746 86.0214 157.351 86.2803 157.962C86.5393 158.574 86.9692 159.004 87.57 159.253ZM94.2672 151.166C94.9376 150.882 95.5516 150.865 96.1094 151.115C96.6714 151.355 97.099 151.821 97.3923 152.514L98.8289 155.906L98.0996 156.215L96.663 152.823C96.454 152.329 96.1592 152.002 95.7785 151.842C95.4053 151.678 94.9792 151.698 94.5004 151.901C93.97 152.125 93.6108 152.477 93.4228 152.957C93.2317 153.429 93.2843 154.014 93.5807 154.714L94.8067 157.609L94.0774 157.918L91.7376 152.393L92.467 152.084L92.8319 152.946C92.9637 152.109 93.4421 151.515 94.2672 151.166Z" fill="white"/>
</svg>
