<svg width="125" height="103" viewBox="0 0 125 103" fill="none" xmlns="http://www.w3.org/2000/svg">
<g filter="url(#filter0_d_82_124)">
<circle cx="60.0103" cy="47.5001" r="47.5001" fill="#CBD6FF"/>
<circle cx="60.0103" cy="47.5001" r="47.0001" stroke="#052ABD"/>
</g>
<circle cx="60.4467" cy="47.5001" r="41.2971" fill="#AEBEFF" stroke="#052ABD" stroke-width="3"/>
<path d="M60.5 25.464L62.0392 30.2012H67.0202L62.9905 33.1289L64.5297 37.866L60.5 34.9383L56.4704 37.866L58.0096 33.1289L53.9799 30.2012H58.9608L60.5 25.464Z" fill="#052ABD"/>
<path d="M60.5 56.8042L62.0392 61.5414H67.0202L62.9905 64.4691L64.5297 69.2063L60.5 66.2785L56.4704 69.2063L58.0096 64.4691L53.9799 61.5414H58.9608L60.5 56.8042Z" fill="#052ABD"/>
<path d="M45.8092 20.5671L46.9086 23.9508H50.4664L47.5881 26.0421L48.6875 29.4257L45.8092 27.3345L42.9308 29.4257L44.0303 26.0421L41.1519 23.9508H44.7098L45.8092 20.5671Z" fill="#052ABD"/>
<path d="M45.8092 65.6188L46.9086 69.0025H50.4664L47.5881 71.0937L48.6875 74.4774L45.8092 72.3862L42.9308 74.4774L44.0303 71.0937L41.1519 69.0025H44.7098L45.8092 65.6188Z" fill="#052ABD"/>
<path d="M75.1907 20.5671L76.2902 23.9508H79.848L76.9697 26.0421L78.0691 29.4257L75.1907 27.3345L72.3124 29.4257L73.4118 26.0421L70.5335 23.9508H74.0913L75.1907 20.5671Z" fill="#052ABD"/>
<path d="M75.1907 65.6188L76.2902 69.0025H79.848L76.9697 71.0937L78.0691 74.4774L75.1907 72.3862L72.3124 74.4774L73.4118 71.0937L70.5335 69.0025H74.0913L75.1907 65.6188Z" fill="#052ABD"/>
<rect y="37" width="125" height="21" rx="2" fill="#052ABD"/>
<path d="M9.913 52L5.935 42.9H7.768L11.317 51.129H10.264L13.852 42.9H15.542L11.577 52H9.913ZM16.5023 52V42.9H18.1923V52H16.5023ZM23.4746 52.13C22.764 52.13 22.0836 52.0303 21.4336 51.831C20.7836 51.623 20.268 51.3587 19.8866 51.038L20.4716 49.725C20.8356 50.011 21.2863 50.2493 21.8236 50.44C22.361 50.6307 22.9113 50.726 23.4746 50.726C23.9513 50.726 24.337 50.674 24.6316 50.57C24.9263 50.466 25.143 50.3273 25.2816 50.154C25.4203 49.972 25.4896 49.7683 25.4896 49.543C25.4896 49.2657 25.39 49.0447 25.1906 48.88C24.9913 48.7067 24.7313 48.5723 24.4106 48.477C24.0986 48.373 23.7476 48.2777 23.3576 48.191C22.9763 48.1043 22.5906 48.0047 22.2006 47.892C21.8193 47.7707 21.4683 47.619 21.1476 47.437C20.8356 47.2463 20.58 46.995 20.3806 46.683C20.1813 46.371 20.0816 45.9723 20.0816 45.487C20.0816 44.993 20.2116 44.5423 20.4716 44.135C20.7403 43.719 21.1433 43.3897 21.6806 43.147C22.2266 42.8957 22.9156 42.77 23.7476 42.77C24.2936 42.77 24.8353 42.8393 25.3726 42.978C25.91 43.1167 26.378 43.316 26.7766 43.576L26.2436 44.889C25.8363 44.6463 25.416 44.4687 24.9826 44.356C24.5493 44.2347 24.1333 44.174 23.7346 44.174C23.2666 44.174 22.8853 44.2303 22.5906 44.343C22.3046 44.4557 22.0923 44.603 21.9536 44.785C21.8236 44.967 21.7586 45.175 21.7586 45.409C21.7586 45.6863 21.854 45.9117 22.0446 46.085C22.244 46.2497 22.4996 46.3797 22.8116 46.475C23.1323 46.5703 23.4876 46.6657 23.8776 46.761C24.2676 46.8477 24.6533 46.9473 25.0346 47.06C25.4246 47.1727 25.7756 47.32 26.0876 47.502C26.4083 47.684 26.664 47.931 26.8546 48.243C27.054 48.555 27.1536 48.9493 27.1536 49.426C27.1536 49.9113 27.0193 50.362 26.7506 50.778C26.4906 51.1853 26.0876 51.5147 25.5416 51.766C24.9956 52.0087 24.3066 52.13 23.4746 52.13ZM27.5424 52L31.6374 42.9H33.3014L37.4094 52H35.6414L32.1184 43.797H32.7944L29.2844 52H27.5424ZM29.4274 49.894L29.8824 48.568H34.7964L35.2514 49.894H29.4274ZM40.8725 52L44.9675 42.9H46.6315L50.7395 52H48.9715L45.4485 43.797H46.1245L42.6145 52H40.8725ZM42.7575 49.894L43.2125 48.568H48.1265L48.5815 49.894H42.7575ZM51.8968 52V42.9H55.6408C56.4468 42.9 57.1358 43.03 57.7078 43.29C58.2885 43.55 58.7348 43.9227 59.0468 44.408C59.3588 44.8933 59.5148 45.4697 59.5148 46.137C59.5148 46.8043 59.3588 47.3807 59.0468 47.866C58.7348 48.3513 58.2885 48.724 57.7078 48.984C57.1358 49.244 56.4468 49.374 55.6408 49.374H52.8328L53.5868 48.581V52H51.8968ZM53.5868 48.763L52.8328 47.944H55.5628C56.3081 47.944 56.8671 47.788 57.2398 47.476C57.6211 47.1553 57.8118 46.709 57.8118 46.137C57.8118 45.5563 57.6211 45.11 57.2398 44.798C56.8671 44.486 56.3081 44.33 55.5628 44.33H52.8328L53.5868 43.498V48.763ZM61.2025 52V42.9H64.9465C65.7525 42.9 66.4415 43.03 67.0135 43.29C67.5941 43.55 68.0405 43.9227 68.3525 44.408C68.6645 44.8933 68.8205 45.4697 68.8205 46.137C68.8205 46.8043 68.6645 47.3807 68.3525 47.866C68.0405 48.3513 67.5941 48.724 67.0135 48.984C66.4415 49.244 65.7525 49.374 64.9465 49.374H62.1385L62.8925 48.581V52H61.2025ZM62.8925 48.763L62.1385 47.944H64.8685C65.6138 47.944 66.1728 47.788 66.5455 47.476C66.9268 47.1553 67.1175 46.709 67.1175 46.137C67.1175 45.5563 66.9268 45.11 66.5455 44.798C66.1728 44.486 65.6138 44.33 64.8685 44.33H62.1385L62.8925 43.498V48.763ZM70.5081 52V42.9H74.2521C75.0581 42.9 75.7471 43.03 76.3191 43.29C76.8998 43.55 77.3461 43.9227 77.6581 44.408C77.9701 44.8933 78.1261 45.4697 78.1261 46.137C78.1261 46.8043 77.9701 47.3807 77.6581 47.866C77.3461 48.3427 76.8998 48.711 76.3191 48.971C75.7471 49.2223 75.0581 49.348 74.2521 49.348H71.4441L72.1981 48.581V52H70.5081ZM76.4621 52L74.1611 48.698H75.9681L78.2821 52H76.4621ZM72.1981 48.763L71.4441 47.957H74.1741C74.9195 47.957 75.4785 47.7967 75.8511 47.476C76.2325 47.1553 76.4231 46.709 76.4231 46.137C76.4231 45.5563 76.2325 45.11 75.8511 44.798C75.4785 44.486 74.9195 44.33 74.1741 44.33H71.4441L72.1981 43.498V48.763ZM84.2809 52.13C83.5703 52.13 82.9159 52.013 82.3179 51.779C81.7199 51.545 81.1999 51.22 80.7579 50.804C80.3159 50.3793 79.9736 49.8853 79.7309 49.322C79.4883 48.75 79.3669 48.126 79.3669 47.45C79.3669 46.774 79.4883 46.1543 79.7309 45.591C79.9736 45.019 80.3159 44.525 80.7579 44.109C81.1999 43.6843 81.7199 43.355 82.3179 43.121C82.9159 42.887 83.5659 42.77 84.2679 42.77C84.9786 42.77 85.6286 42.887 86.2179 43.121C86.8159 43.355 87.3359 43.6843 87.7779 44.109C88.2199 44.525 88.5623 45.019 88.8049 45.591C89.0476 46.1543 89.1689 46.774 89.1689 47.45C89.1689 48.126 89.0476 48.75 88.8049 49.322C88.5623 49.894 88.2199 50.388 87.7779 50.804C87.3359 51.22 86.8159 51.545 86.2179 51.779C85.6286 52.013 84.9829 52.13 84.2809 52.13ZM84.2679 50.648C84.7273 50.648 85.1519 50.57 85.5419 50.414C85.9319 50.258 86.2699 50.037 86.5559 49.751C86.8419 49.4563 87.0629 49.1183 87.2189 48.737C87.3836 48.347 87.4659 47.918 87.4659 47.45C87.4659 46.982 87.3836 46.5573 87.2189 46.176C87.0629 45.786 86.8419 45.448 86.5559 45.162C86.2699 44.8673 85.9319 44.642 85.5419 44.486C85.1519 44.33 84.7273 44.252 84.2679 44.252C83.8086 44.252 83.3839 44.33 82.9939 44.486C82.6126 44.642 82.2746 44.8673 81.9799 45.162C81.6939 45.448 81.4686 45.786 81.3039 46.176C81.1479 46.5573 81.0699 46.982 81.0699 47.45C81.0699 47.9093 81.1479 48.334 81.3039 48.724C81.4686 49.114 81.6939 49.4563 81.9799 49.751C82.2659 50.037 82.6039 50.258 82.9939 50.414C83.3839 50.57 83.8086 50.648 84.2679 50.648ZM93.372 52L89.394 42.9H91.227L94.776 51.129H93.723L97.311 42.9H99.001L95.036 52H93.372ZM101.521 46.683H106.045V48.074H101.521V46.683ZM101.651 50.583H106.786V52H99.9613V42.9H106.604V44.317H101.651V50.583ZM108.67 52V42.9H112.648C113.636 42.9 114.503 43.0907 115.248 43.472C115.994 43.8533 116.574 44.382 116.99 45.058C117.406 45.734 117.614 46.5313 117.614 47.45C117.614 48.36 117.406 49.1573 116.99 49.842C116.574 50.518 115.994 51.0467 115.248 51.428C114.503 51.8093 113.636 52 112.648 52H108.67ZM110.36 50.57H112.57C113.255 50.57 113.844 50.44 114.338 50.18C114.841 49.92 115.227 49.556 115.495 49.088C115.773 48.62 115.911 48.074 115.911 47.45C115.911 46.8173 115.773 46.2713 115.495 45.812C115.227 45.344 114.841 44.98 114.338 44.72C113.844 44.46 113.255 44.33 112.57 44.33H110.36V50.57Z" fill="white"/>
<defs>
<filter id="filter0_d_82_124" x="8.51016" y="0" width="103" height="103" filterUnits="userSpaceOnUse" color-interpolation-filters="sRGB">
<feFlood flood-opacity="0" result="BackgroundImageFix"/>
<feColorMatrix in="SourceAlpha" type="matrix" values="0 0 0 0 0 0 0 0 0 0 0 0 0 0 0 0 0 0 127 0" result="hardAlpha"/>
<feOffset dy="4"/>
<feGaussianBlur stdDeviation="2"/>
<feComposite in2="hardAlpha" operator="out"/>
<feColorMatrix type="matrix" values="0 0 0 0 0 0 0 0 0 0 0 0 0 0 0 0 0 0 0.15 0"/>
<feBlend mode="normal" in2="BackgroundImageFix" result="effect1_dropShadow_82_124"/>
<feBlend mode="normal" in="SourceGraphic" in2="effect1_dropShadow_82_124" result="shape"/>
</filter>
</defs>
</svg>
